<svg width="66" height="13" viewBox="0 0 66 13" fill="none" xmlns="http://www.w3.org/2000/svg">
<path d="M9.024 7.192C9.024 7.39467 8.55467 7.62933 7.616 7.896C7.70133 9.00533 7.744 9.94933 7.744 10.728C7.744 12.072 7.57333 12.744 7.232 12.744C7.05067 12.744 6.90667 12.632 6.8 12.408C6.69333 12.184 6.608 11.7947 6.544 11.24C6.46933 10.216 6.38933 9.21333 6.304 8.232C5.824 8.36 5.38667 8.47733 4.992 8.584C4.59733 8.68 4 8.84 3.2 9.064C2.26133 11.5173 1.70667 12.744 1.536 12.744C1.36533 12.744 1.17867 12.6427 0.976 12.44C0.784 12.2267 0.688 12.0027 0.688 11.768C0.688 11.6613 0.992 10.904 1.6 9.496H1.488C1.27467 9.496 1.08267 9.42667 0.912 9.288C0.752 9.14933 0.672 8.97867 0.672 8.776C0.672 8.56267 1.2 8.28533 2.256 7.944C2.42667 7.56 2.56533 7.21333 2.672 6.904C2.91733 6.296 3.25867 5.464 3.696 4.408C4.13333 3.352 4.41067 2.68 4.528 2.392C4.64533 2.09333 4.848 1.84267 5.136 1.64C5.43467 1.42667 5.72267 1.32 6 1.32C6.33067 1.32 6.624 1.848 6.88 2.904C7.14667 3.96 7.36 5.26667 7.52 6.824C7.81867 6.792 8.08 6.776 8.304 6.776C8.784 6.776 9.024 6.91467 9.024 7.192ZM3.792 7.528C4.54933 7.32533 5.34933 7.15467 6.192 7.016C6 5.192 5.81333 3.82133 5.632 2.904C5.152 4.00267 4.53867 5.544 3.792 7.528ZM10.9184 12.76C10.769 12.76 10.593 12.648 10.3904 12.424C10.1877 12.1893 10.0864 11.9707 10.0864 11.768C10.0864 11.5653 10.2517 10.872 10.5824 9.688C10.9237 8.504 11.2597 7.08 11.5904 5.416C11.9317 3.74133 12.1024 2.21067 12.1024 0.823999C12.1024 0.504 12.2197 0.344 12.4544 0.344C12.625 0.344 12.833 0.504 13.0784 0.823999C13.3237 1.13333 13.4464 1.43733 13.4464 1.736C13.4464 3.048 13.1584 4.92 12.5824 7.352C13.8517 5.63467 15.0037 4.776 16.0384 4.776C16.5397 4.776 16.961 5.02133 17.3024 5.512C17.6544 6.00267 17.8304 6.58933 17.8304 7.272C17.8304 7.944 17.633 8.71733 17.2384 9.592C16.8544 10.4667 16.3317 11.2187 15.6704 11.848C15.009 12.4667 14.3157 12.776 13.5904 12.776C12.865 12.776 12.1504 12.408 11.4464 11.672L11.4304 11.688C11.1957 12.4027 11.025 12.76 10.9184 12.76ZM13.4624 11.528C14.1557 11.528 14.833 11.0587 15.4944 10.12C16.1664 9.17067 16.5024 8.17333 16.5024 7.128C16.5024 6.49867 16.3104 6.184 15.9264 6.184C15.3077 6.184 14.6144 6.616 13.8464 7.48C13.089 8.344 12.433 9.37333 11.8784 10.568C12.3797 11.208 12.9077 11.528 13.4624 11.528ZM23.4686 7.544C23.4686 7.18133 23.41 6.84 23.2926 6.52C23.1753 6.18933 23.0046 5.94933 22.7806 5.8C22.0446 6.00267 21.41 6.57333 20.8766 7.512C20.354 8.44 20.0926 9.31467 20.0926 10.136C20.0926 10.9573 20.2953 11.4693 20.7006 11.672C21.4686 11.5227 22.1193 11 22.6526 10.104C23.1966 9.19733 23.4686 8.344 23.4686 7.544ZM19.2606 7.688C19.634 6.856 20.1193 6.17333 20.7166 5.64C21.3246 5.096 21.9433 4.824 22.5726 4.824C23.2126 4.824 23.746 5.096 24.1726 5.64C24.5993 6.17333 24.8126 6.82933 24.8126 7.608C24.8126 8.376 24.626 9.16533 24.2526 9.976C23.8793 10.776 23.362 11.4427 22.7006 11.976C22.05 12.4987 21.3566 12.76 20.6206 12.76C20.0766 12.76 19.6233 12.5093 19.2606 12.008C18.898 11.5067 18.7166 10.872 18.7166 10.104C18.7166 9.32533 18.898 8.52 19.2606 7.688ZM31.5506 5.272C31.5933 5.10133 31.636 4.984 31.6786 4.92C31.7213 4.856 31.812 4.824 31.9506 4.824C32.1 4.824 32.276 4.96267 32.4786 5.24C32.692 5.51733 32.7986 5.784 32.7986 6.04C32.7986 6.17867 32.564 7 32.0946 8.504C31.6253 10.008 31.2626 11.2027 31.0066 12.088C30.8786 12.536 30.6973 12.76 30.4626 12.76C30.324 12.76 30.2066 12.7013 30.1106 12.584C30.0146 12.4667 29.9666 12.2533 29.9666 11.944C29.9666 11.6347 30.0893 11.0747 30.3346 10.264C29.8866 10.9893 29.4013 11.5867 28.8786 12.056C28.356 12.5253 27.876 12.76 27.4386 12.76C27.012 12.76 26.6066 12.5573 26.2226 12.152C25.8386 11.7467 25.6466 11.3307 25.6466 10.904C25.6466 9.89067 25.94 8.62667 26.5266 7.112C27.124 5.58667 27.62 4.824 28.0146 4.824C28.2066 4.824 28.372 4.91467 28.5106 5.096C28.66 5.26667 28.7346 5.464 28.7346 5.688C28.7346 5.784 28.5906 6.13067 28.3026 6.728C28.0146 7.31467 27.7266 8.008 27.4386 8.808C27.1506 9.59733 27.0066 10.2907 27.0066 10.888C27.0066 11.0587 27.06 11.2027 27.1666 11.32C27.2733 11.4267 27.4013 11.48 27.5506 11.48C27.956 11.48 28.436 11.1227 28.9906 10.408C29.556 9.69333 30.068 8.86133 30.5266 7.912C30.9853 6.96267 31.3266 6.08267 31.5506 5.272ZM35.3818 11.16C35.3818 11.3627 35.4991 11.464 35.7338 11.464C36.1391 11.464 36.6298 11.352 37.2057 11.128C37.7924 10.8933 38.1178 10.776 38.1818 10.776C38.3738 10.776 38.4698 10.8773 38.4698 11.08C38.4698 11.3893 38.1498 11.7467 37.5098 12.152C36.8804 12.5573 36.3044 12.76 35.7818 12.76C35.2698 12.76 34.8431 12.6213 34.5018 12.344C34.1604 12.056 33.9898 11.7627 33.9898 11.464C33.9898 11.1653 34.0538 10.7867 34.1818 10.328C34.3098 9.85867 34.4911 9.24533 34.7258 8.488C34.9711 7.72 35.1631 7.08533 35.3018 6.584C34.8004 6.70133 34.4644 6.76 34.2938 6.76C34.1231 6.76 33.9524 6.67467 33.7818 6.504C33.6218 6.32267 33.5418 6.152 33.5418 5.992C33.5418 5.736 34.2351 5.49067 35.6218 5.256C35.8138 4.37067 35.9098 3.58667 35.9098 2.904C35.9098 2.584 36.0164 2.424 36.2298 2.424C36.4111 2.424 36.6351 2.54133 36.9018 2.776C37.1684 3 37.3018 3.256 37.3018 3.544C37.3018 3.832 37.2111 4.33867 37.0298 5.064C37.6378 5.01067 38.1231 4.984 38.4858 4.984C39.1258 4.984 39.4458 5.12267 39.4458 5.4C39.4458 5.56 39.2698 5.69333 38.9178 5.8C38.5764 5.90667 37.8511 6.072 36.7418 6.296C36.5178 7.13867 36.2351 8.104 35.8938 9.192C35.5524 10.2693 35.3818 10.9253 35.3818 11.16ZM56.5511 4.824C56.8711 4.824 57.1538 5.048 57.3991 5.496C57.6551 5.93333 57.7831 6.43467 57.7831 7C57.7831 7.55467 57.6818 8.28 57.4791 9.176C57.2871 10.072 57.0258 10.8933 56.6951 11.64C56.3645 12.3867 56.0391 12.76 55.7191 12.76C55.4951 12.76 55.3831 12.616 55.3831 12.328C55.3831 12.0293 55.5645 11.3093 55.9271 10.168C56.3005 9.016 56.4871 8.104 56.4871 7.432C56.4871 6.74933 56.3805 6.408 56.1671 6.408C55.9005 6.408 55.5911 6.64267 55.2391 7.112C54.8978 7.58133 54.5298 8.14667 54.1351 8.808C53.7405 9.46933 53.5271 9.82667 53.4951 9.88C53.4631 9.92267 53.4205 9.98667 53.3671 10.072C53.3245 10.1573 53.2711 10.248 53.2071 10.344C53.1538 10.44 53.0045 10.728 52.7591 11.208C52.5245 11.688 52.3165 12.0667 52.1351 12.344C51.9538 12.6107 51.7938 12.744 51.6551 12.744C51.5271 12.744 51.3831 12.6587 51.2231 12.488C51.0631 12.3173 50.9831 12.1573 50.9831 12.008C50.9831 11.8587 51.0791 11.5493 51.2711 11.08C51.8258 9.69333 52.1031 8.40267 52.1031 7.208C52.1031 6.984 52.0551 6.79733 51.9591 6.648C51.8631 6.488 51.7565 6.408 51.6391 6.408C51.5218 6.408 51.3991 6.46133 51.2711 6.568C51.1431 6.664 50.9831 6.84533 50.7911 7.112C50.5991 7.368 50.4285 7.61333 50.2791 7.848C50.1298 8.08267 49.9005 8.45067 49.5911 8.952C49.2925 9.44267 49.0631 9.81067 48.9031 10.056C48.7538 10.2907 48.5778 10.568 48.3751 10.888C48.1725 11.1973 48.0125 11.4373 47.8951 11.608C47.7885 11.7787 47.6658 11.9653 47.5271 12.168C47.2391 12.5627 47.0258 12.76 46.8871 12.76C46.7591 12.76 46.5885 12.6427 46.3751 12.408C46.1618 12.1627 46.0551 11.9813 46.0551 11.864C46.0551 11.736 46.0765 11.5813 46.1191 11.4C46.1618 11.2187 46.2045 11.0427 46.2471 10.872C46.3005 10.7013 46.3751 10.4507 46.4711 10.12C46.5778 9.77867 46.6951 9.384 46.8231 8.936C46.9618 8.47733 47.0631 7.85333 47.1271 7.064C47.2018 6.264 47.2551 5.68267 47.2871 5.32C47.3191 4.94667 47.4098 4.76 47.5591 4.76C47.7938 4.76 48.0231 4.88267 48.2471 5.128C48.4818 5.37333 48.5991 5.61867 48.5991 5.864C48.5991 6.80267 48.2471 8.34933 47.5431 10.504C48.7378 8.264 49.4898 6.936 49.7991 6.52C50.1085 6.104 50.3751 5.768 50.5991 5.512C51.0151 5.05333 51.4365 4.824 51.8631 4.824C52.1191 4.824 52.4231 5.048 52.7751 5.496C53.1378 5.93333 53.3191 6.376 53.3191 6.824C53.3191 7.272 53.2551 7.82667 53.1271 8.488C54.3858 6.04533 55.5271 4.824 56.5511 4.824ZM65.3175 7.48C65.3175 8.04533 65.0082 8.50933 64.3895 8.872C63.7815 9.224 63.0882 9.4 62.3095 9.4C61.5415 9.4 60.8428 9.31467 60.2135 9.144C60.0642 9.61333 59.9895 10.0347 59.9895 10.408C59.9895 10.7707 60.1015 11.0533 60.3255 11.256C60.5602 11.4587 60.9388 11.56 61.4615 11.56C61.9948 11.56 62.5388 11.4693 63.0935 11.288C63.6588 11.096 63.9682 11 64.0215 11C64.2988 11 64.4375 11.1067 64.4375 11.32C64.4375 11.608 64.1122 11.9227 63.4615 12.264C62.8108 12.5947 62.1762 12.76 61.5575 12.76C60.7255 12.76 60.0482 12.5147 59.5255 12.024C59.0028 11.5227 58.7415 10.8933 58.7415 10.136C58.7415 9.37867 58.9442 8.58933 59.3495 7.768C59.7548 6.936 60.2775 6.23733 60.9175 5.672C61.5575 5.10667 62.1922 4.824 62.8215 4.824C63.4508 4.824 64.0215 5.12267 64.5335 5.72C65.0562 6.31733 65.3175 6.904 65.3175 7.48ZM62.9015 6.088C62.5068 6.088 62.0962 6.296 61.6695 6.712C61.2428 7.11733 60.8802 7.624 60.5815 8.232C61.0082 8.328 61.4935 8.376 62.0375 8.376C62.5815 8.376 63.0562 8.29067 63.4615 8.12C63.8668 7.93867 64.0695 7.704 64.0695 7.416C64.0695 7.128 63.9362 6.83467 63.6695 6.536C63.4135 6.23733 63.1575 6.088 62.9015 6.088Z" fill="#7DFFAF"/>
</svg>
