<svg width="160" height="160" viewBox="0 0 160 160" fill="none" xmlns="http://www.w3.org/2000/svg">
<path d="M150.693 44.0785C182.431 105.203 126.641 174.17 60.1308 157.333C30.2746 149.909 6.27457 124.026 1.30725 93.6471C-4.33981 63.4249 9.30725 30.9543 34.8236 13.8563C69.804 -10.196 118.275 -2.19602 143.32 32.2092C143.477 32.3661 143.425 32.6275 143.216 32.7844C143.059 32.9412 142.797 32.889 142.641 32.6798C139.19 28.2354 135.268 24.2092 130.98 20.6014C123.922 14.5883 115.66 9.88241 106.928 6.69287C62.4837 -9.41171 13.6994 17.3595 3.97391 63.8432C-7.00648 115.922 37.2811 163.869 90.0916 156.706C130.824 151.582 161.098 113.987 157.752 73.0981C157.02 63.2157 154.405 53.438 150.065 44.4445C149.961 44.2876 150.065 44.0785 150.222 43.9739C150.379 43.8693 150.588 43.9216 150.693 44.0785Z" fill="white"/>
</svg>
