<svg width="52" height="12" viewBox="0 0 52 12" fill="none" xmlns="http://www.w3.org/2000/svg">
<path d="M6.52 0.511999C6.79733 0.511999 7.08 0.687999 7.368 1.04C7.66667 1.392 7.816 1.68533 7.816 1.92C7.816 2.144 7.77333 2.256 7.688 2.256C7.61333 2.256 7.464 2.21867 7.24 2.144C7.016 2.05867 6.81333 2.016 6.632 2.016C6.216 2.016 5.70933 2.22933 5.112 2.656C4.52533 3.08267 3.96533 3.61067 3.432 4.24C2.90933 4.86933 2.46133 5.58933 2.088 6.4C1.71467 7.2 1.528 7.89333 1.528 8.48C1.528 9.06667 1.67733 9.49867 1.976 9.776C2.28533 10.0427 2.68533 10.176 3.176 10.176C3.66667 10.176 4.17333 10.1067 4.696 9.968C5.21867 9.81867 5.64533 9.65333 5.976 9.472C6.82933 9.01333 7.29867 8.784 7.384 8.784C7.56533 8.784 7.656 8.90667 7.656 9.152C7.656 9.38667 7.41067 9.70667 6.92 10.112C6.42933 10.5067 5.82133 10.864 5.096 11.184C4.37067 11.504 3.72 11.664 3.144 11.664C2.39733 11.664 1.69333 11.344 1.032 10.704C0.370667 10.0533 0.0400001 9.33867 0.0400001 8.56C0.0400001 7.55733 0.365333 6.42667 1.016 5.168C1.67733 3.89867 2.52 2.80533 3.544 1.888C4.57867 0.970666 5.57067 0.511999 6.52 0.511999ZM13.9061 6.544C13.9061 6.18133 13.8475 5.84 13.7301 5.52C13.6128 5.18933 13.4421 4.94933 13.2181 4.8C12.4821 5.00267 11.8475 5.57333 11.3141 6.512C10.7915 7.44 10.5301 8.31467 10.5301 9.136C10.5301 9.95733 10.7328 10.4693 11.1381 10.672C11.9061 10.5227 12.5568 10 13.0901 9.104C13.6341 8.19733 13.9061 7.344 13.9061 6.544ZM9.69813 6.688C10.0715 5.856 10.5568 5.17333 11.1541 4.64C11.7621 4.096 12.3808 3.824 13.0101 3.824C13.6501 3.824 14.1835 4.096 14.6101 4.64C15.0368 5.17333 15.2501 5.82933 15.2501 6.608C15.2501 7.376 15.0635 8.16533 14.6901 8.976C14.3168 9.776 13.7995 10.4427 13.1381 10.976C12.4875 11.4987 11.7941 11.76 11.0581 11.76C10.5141 11.76 10.0608 11.5093 9.69813 11.008C9.33546 10.5067 9.15413 9.872 9.15413 9.104C9.15413 8.32533 9.33546 7.52 9.69813 6.688ZM17.8921 8.976C18.9161 7.23733 19.7481 5.94667 20.3881 5.104C21.0388 4.25067 21.5668 3.824 21.9721 3.824C22.3881 3.824 22.7775 4.04267 23.1401 4.48C23.5135 4.91733 23.7001 5.38133 23.7001 5.872C23.7001 6.64 23.5241 7.57867 23.1721 8.688C22.5321 10.736 21.9561 11.76 21.4441 11.76C21.2095 11.76 21.0921 11.6 21.0921 11.28C21.0921 11.056 21.2041 10.6027 21.4281 9.92C21.6628 9.22667 21.8761 8.54933 22.0681 7.888C22.2708 7.216 22.3721 6.71467 22.3721 6.384C22.3721 6.04267 22.3188 5.792 22.2121 5.632C22.1161 5.472 22.0148 5.392 21.9081 5.392C21.8121 5.392 21.7108 5.424 21.6041 5.488C21.4975 5.552 21.3748 5.65867 21.2361 5.808C21.1081 5.95733 20.9855 6.10667 20.8681 6.256C20.7508 6.39467 20.6015 6.59733 20.4201 6.864C20.2495 7.13067 20.1055 7.36 19.9881 7.552C19.8708 7.73333 19.7001 8 19.4761 8.352C19.2521 8.704 19.0815 8.97067 18.9641 9.152C18.8468 9.33333 18.6921 9.57867 18.5001 9.888C18.3081 10.1973 18.1535 10.4373 18.0361 10.608C17.9295 10.7787 17.8068 10.9653 17.6681 11.168C17.4015 11.5627 17.1881 11.76 17.0281 11.76C16.8788 11.76 16.7028 11.6427 16.5001 11.408C16.2975 11.1627 16.1961 10.9493 16.1961 10.768C16.1961 10.7147 16.2335 10.5707 16.3081 10.336C16.5108 9.71733 16.7348 8.95467 16.9801 8.048C17.2255 7.13067 17.3588 6.09067 17.3801 4.928C17.4121 4.14933 17.5241 3.76 17.7161 3.76C17.9508 3.76 18.1855 3.88267 18.4201 4.128C18.6548 4.37333 18.7721 4.64533 18.7721 4.944C18.7721 5.232 18.6815 5.79733 18.5001 6.64C18.3295 7.472 18.1268 8.25067 17.8921 8.976ZM26.6474 10.16C26.6474 10.3627 26.7647 10.464 26.9994 10.464C27.4047 10.464 27.8954 10.352 28.4714 10.128C29.058 9.89333 29.3834 9.776 29.4474 9.776C29.6394 9.776 29.7354 9.87733 29.7354 10.08C29.7354 10.3893 29.4154 10.7467 28.7754 11.152C28.146 11.5573 27.57 11.76 27.0474 11.76C26.5354 11.76 26.1087 11.6213 25.7674 11.344C25.426 11.056 25.2554 10.7627 25.2554 10.464C25.2554 10.1653 25.3194 9.78667 25.4474 9.328C25.5754 8.85867 25.7567 8.24533 25.9914 7.488C26.2367 6.72 26.4287 6.08533 26.5674 5.584C26.066 5.70133 25.73 5.76 25.5594 5.76C25.3887 5.76 25.218 5.67467 25.0474 5.504C24.8874 5.32267 24.8074 5.152 24.8074 4.992C24.8074 4.736 25.5007 4.49067 26.8874 4.256C27.0794 3.37067 27.1754 2.58667 27.1754 1.904C27.1754 1.584 27.282 1.424 27.4954 1.424C27.6767 1.424 27.9007 1.54133 28.1674 1.776C28.434 2 28.5674 2.256 28.5674 2.544C28.5674 2.832 28.4767 3.33867 28.2954 4.064C28.9034 4.01067 29.3887 3.984 29.7514 3.984C30.3914 3.984 30.7114 4.12267 30.7114 4.4C30.7114 4.56 30.5354 4.69333 30.1834 4.8C29.842 4.90667 29.1167 5.072 28.0074 5.296C27.7834 6.13867 27.5007 7.104 27.1594 8.192C26.818 9.26933 26.6474 9.92533 26.6474 10.16ZM35.2989 3.824C35.7789 3.824 36.2215 4.06933 36.6269 4.56C37.0322 5.04 37.2349 5.47733 37.2349 5.872C37.2349 6.256 37.1015 6.65067 36.8349 7.056C36.9629 7.216 37.0269 7.35467 37.0269 7.472C37.0269 7.77067 36.9575 8.28267 36.8189 9.008C36.6909 9.73333 36.6109 10.208 36.5789 10.432C36.5575 10.656 36.5362 10.8373 36.5149 10.976C36.4935 11.104 36.4669 11.232 36.4349 11.36C36.3922 11.6267 36.2962 11.76 36.1469 11.76C35.9549 11.76 35.7949 11.5947 35.6669 11.264C35.5495 10.9227 35.4802 10.4853 35.4589 9.952C34.5095 11.1573 33.6295 11.76 32.8189 11.76C32.3282 11.76 31.8429 11.552 31.3629 11.136C30.8935 10.7093 30.6589 10.272 30.6589 9.824C30.6589 9.184 30.8935 8.39467 31.3629 7.456C31.8322 6.50667 32.4402 5.664 33.1869 4.928C33.9335 4.192 34.6375 3.824 35.2989 3.824ZM36.0349 6.64C36.0349 5.648 35.8375 5.152 35.4429 5.152C35.0269 5.152 34.5415 5.45067 33.9869 6.048C33.4322 6.63467 32.9629 7.30133 32.5789 8.048C32.1949 8.79467 32.0029 9.38667 32.0029 9.824C32.0029 10.0053 32.0775 10.1547 32.2269 10.272C32.3762 10.3787 32.5522 10.432 32.7549 10.432C33.2562 10.432 33.8215 10.096 34.4509 9.424C35.0802 8.74133 35.5175 7.91467 35.7629 6.944C35.7949 6.784 35.8855 6.688 36.0349 6.656V6.64ZM41.1189 11.76C40.5002 11.76 39.9189 11.52 39.3749 11.04C38.8309 10.5493 38.5589 9.97333 38.5589 9.312C38.5589 8.64 38.7829 7.86667 39.2309 6.992C39.6789 6.11733 40.2549 5.37067 40.9589 4.752C41.6735 4.13333 42.3669 3.824 43.0389 3.824C43.4762 3.824 43.8602 4.02133 44.1909 4.416C44.5215 4.81067 44.6869 5.15733 44.6869 5.456C44.6869 5.54133 44.6602 5.616 44.6069 5.68C44.5535 5.73333 44.4735 5.76 44.3669 5.76C44.2709 5.76 44.0949 5.664 43.8389 5.472C43.5829 5.28 43.3535 5.184 43.1509 5.184C42.5749 5.184 41.9029 5.69067 41.1349 6.704C40.3669 7.71733 39.9829 8.60267 39.9829 9.36C39.9829 9.69067 40.0842 9.952 40.2869 10.144C40.5002 10.336 40.8362 10.432 41.2949 10.432C41.7642 10.432 42.1909 10.3787 42.5749 10.272C42.9695 10.1547 43.2735 10.0427 43.4869 9.936C43.7002 9.81867 43.8655 9.76 43.9829 9.76C44.1855 9.76 44.2869 9.86133 44.2869 10.064C44.2869 10.3733 43.9135 10.736 43.1669 11.152C42.4309 11.5573 41.7482 11.76 41.1189 11.76ZM47.4599 10.16C47.4599 10.3627 47.5772 10.464 47.8119 10.464C48.2172 10.464 48.7079 10.352 49.2839 10.128C49.8705 9.89333 50.1959 9.776 50.2599 9.776C50.4519 9.776 50.5479 9.87733 50.5479 10.08C50.5479 10.3893 50.2279 10.7467 49.5879 11.152C48.9585 11.5573 48.3825 11.76 47.8599 11.76C47.3479 11.76 46.9212 11.6213 46.5799 11.344C46.2385 11.056 46.0679 10.7627 46.0679 10.464C46.0679 10.1653 46.1319 9.78667 46.2599 9.328C46.3879 8.85867 46.5692 8.24533 46.8039 7.488C47.0492 6.72 47.2412 6.08533 47.3799 5.584C46.8785 5.70133 46.5425 5.76 46.3719 5.76C46.2012 5.76 46.0305 5.67467 45.8599 5.504C45.6999 5.32267 45.6199 5.152 45.6199 4.992C45.6199 4.736 46.3132 4.49067 47.6999 4.256C47.8919 3.37067 47.9879 2.58667 47.9879 1.904C47.9879 1.584 48.0945 1.424 48.3079 1.424C48.4892 1.424 48.7132 1.54133 48.9799 1.776C49.2465 2 49.3799 2.256 49.3799 2.544C49.3799 2.832 49.2892 3.33867 49.1079 4.064C49.7159 4.01067 50.2012 3.984 50.5639 3.984C51.2039 3.984 51.5239 4.12267 51.5239 4.4C51.5239 4.56 51.3479 4.69333 50.9959 4.8C50.6545 4.90667 49.9292 5.072 48.8199 5.296C48.5959 6.13867 48.3132 7.104 47.9719 8.192C47.6305 9.26933 47.4599 9.92533 47.4599 10.16Z" fill="#7DFFAF"/>
</svg>
