<svg width="52" height="16" viewBox="0 0 52 16" fill="none" xmlns="http://www.w3.org/2000/svg">
<path d="M8.444 3.152C8.444 4.304 7.88933 5.28 6.78 6.08C5.68133 6.88 4.22533 7.456 2.412 7.808C1.63333 10.4427 1.16933 11.76 1.02 11.76C0.870667 11.76 0.694667 11.6427 0.492 11.408C0.289333 11.1627 0.188 10.9227 0.188 10.688C0.188 10.4427 0.342667 9.80267 0.652 8.768C1.612 5.57867 2.11333 3.35467 2.156 2.096C1.9 1.86133 1.772 1.648 1.772 1.456C1.772 1.18933 2.13467 0.933333 2.86 0.688C3.58533 0.442666 4.27867 0.32 4.94 0.32C5.964 0.32 6.80133 0.581333 7.452 1.104C8.11333 1.62667 8.444 2.30933 8.444 3.152ZM7.036 3.248C7.036 2.77867 6.85467 2.39467 6.492 2.096C6.14 1.78667 5.71333 1.632 5.212 1.632C4.71067 1.632 4.10267 1.792 3.388 2.112C3.49467 2.34667 3.548 2.56533 3.548 2.768C3.548 3.36533 3.28667 4.62933 2.764 6.56C4.044 6.21867 5.07333 5.74933 5.852 5.152C6.64133 4.544 7.036 3.90933 7.036 3.248ZM9.6435 5.776L9.5955 4.576C9.5955 4.07467 9.71283 3.824 9.9475 3.824C10.1502 3.824 10.3422 3.95733 10.5235 4.224C10.7155 4.48 10.8115 4.78933 10.8115 5.152C10.8115 5.504 10.8008 5.77067 10.7795 5.952C11.7075 4.544 12.5875 3.84 13.4195 3.84C13.9422 3.84 14.2035 3.968 14.2035 4.224C14.2035 4.352 14.1448 4.46933 14.0275 4.576C13.9102 4.68267 13.7235 4.80533 13.4675 4.944C12.9022 5.18933 12.4222 5.568 12.0275 6.08C11.6435 6.58133 11.3288 7.152 11.0835 7.792C10.8382 8.432 10.6408 8.97067 10.4915 9.408C10.3528 9.84533 10.2462 10.1867 10.1715 10.432C10.0968 10.6773 10.0115 10.9173 9.9155 11.152C9.74483 11.5787 9.5475 11.792 9.3235 11.792C9.14217 11.792 8.99283 11.6907 8.8755 11.488C8.76883 11.2747 8.7155 11.072 8.7155 10.88C8.7155 10.6773 8.80617 10.2827 8.9875 9.696C9.42483 8.352 9.6435 7.04533 9.6435 5.776ZM18.8124 6.544C18.8124 6.18133 18.7537 5.84 18.6364 5.52C18.519 5.18933 18.3484 4.94933 18.1244 4.8C17.3884 5.00267 16.7537 5.57333 16.2204 6.512C15.6977 7.44 15.4364 8.31467 15.4364 9.136C15.4364 9.95733 15.639 10.4693 16.0444 10.672C16.8124 10.5227 17.463 10 17.9964 9.104C18.5404 8.19733 18.8124 7.344 18.8124 6.544ZM14.6044 6.688C14.9777 5.856 15.463 5.17333 16.0604 4.64C16.6684 4.096 17.287 3.824 17.9164 3.824C18.5564 3.824 19.0897 4.096 19.5164 4.64C19.943 5.17333 20.1564 5.82933 20.1564 6.608C20.1564 7.376 19.9697 8.16533 19.5964 8.976C19.223 9.776 18.7057 10.4427 18.0444 10.976C17.3937 11.4987 16.7004 11.76 15.9644 11.76C15.4204 11.76 14.967 11.5093 14.6044 11.008C14.2417 10.5067 14.0604 9.872 14.0604 9.104C14.0604 8.32533 14.2417 7.52 14.6044 6.688ZM18.3504 13.936C18.809 14.5227 19.1877 14.816 19.4864 14.816C19.785 14.816 20.0357 14.656 20.2384 14.336C20.441 14.016 20.6384 13.5093 20.8304 12.816C21.0224 12.1333 21.2037 11.4293 21.3744 10.704C21.545 9.97867 21.7637 9.01867 22.0304 7.824C22.3077 6.62933 22.5744 5.55733 22.8304 4.608C22.9904 4.08533 23.145 3.824 23.2944 3.824C23.4757 3.824 23.6624 3.94133 23.8544 4.176C24.0464 4.4 24.1424 4.64533 24.1424 4.912C24.1424 5.15733 23.977 5.904 23.6464 7.152C23.3157 8.38933 23.0224 9.504 22.7664 10.496C22.5104 11.488 22.2597 12.4587 22.0144 13.408C21.5557 15.0827 20.7237 15.92 19.5184 15.92C18.985 15.92 18.4677 15.696 17.9664 15.248C17.4544 14.8 17.1984 14.416 17.1984 14.096C17.1984 13.9573 17.257 13.792 17.3744 13.6C17.481 13.4187 17.5824 13.328 17.6784 13.328C17.7957 13.328 17.9184 13.4027 18.0464 13.552C18.1744 13.712 18.2757 13.84 18.3504 13.936ZM23.4864 1.552C23.4864 1.33867 23.5717 1.136 23.7424 0.943999C23.913 0.751999 24.089 0.655999 24.2704 0.655999C24.4517 0.655999 24.6597 0.874666 24.8944 1.312C25.1397 1.73867 25.2624 2.096 25.2624 2.384C25.2624 2.49067 25.2144 2.58667 25.1184 2.672C25.0224 2.75733 24.9264 2.8 24.8304 2.8C24.5744 2.8 24.2864 2.64533 23.9664 2.336C23.6464 2.02667 23.4864 1.76533 23.4864 1.552ZM31.6769 6.48C31.6769 7.04533 31.3675 7.50933 30.7489 7.872C30.1409 8.224 29.4475 8.4 28.6689 8.4C27.9009 8.4 27.2022 8.31467 26.5729 8.144C26.4235 8.61333 26.3489 9.03467 26.3489 9.408C26.3489 9.77067 26.4609 10.0533 26.6849 10.256C26.9195 10.4587 27.2982 10.56 27.8209 10.56C28.3542 10.56 28.8982 10.4693 29.4529 10.288C30.0182 10.096 30.3275 10 30.3809 10C30.6582 10 30.7969 10.1067 30.7969 10.32C30.7969 10.608 30.4715 10.9227 29.8209 11.264C29.1702 11.5947 28.5355 11.76 27.9169 11.76C27.0849 11.76 26.4075 11.5147 25.8849 11.024C25.3622 10.5227 25.1009 9.89333 25.1009 9.136C25.1009 8.37867 25.3035 7.58933 25.7089 6.768C26.1142 5.936 26.6369 5.23733 27.2769 4.672C27.9169 4.10667 28.5515 3.824 29.1809 3.824C29.8102 3.824 30.3809 4.12267 30.8929 4.72C31.4155 5.31733 31.6769 5.904 31.6769 6.48ZM29.2609 5.088C28.8662 5.088 28.4555 5.296 28.0289 5.712C27.6022 6.11733 27.2395 6.624 26.9409 7.232C27.3675 7.328 27.8529 7.376 28.3969 7.376C28.9409 7.376 29.4155 7.29067 29.8209 7.12C30.2262 6.93867 30.4289 6.704 30.4289 6.416C30.4289 6.128 30.2955 5.83467 30.0289 5.536C29.7729 5.23733 29.5169 5.088 29.2609 5.088ZM35.072 11.76C34.4533 11.76 33.872 11.52 33.328 11.04C32.784 10.5493 32.512 9.97333 32.512 9.312C32.512 8.64 32.736 7.86667 33.184 6.992C33.632 6.11733 34.208 5.37067 34.912 4.752C35.6267 4.13333 36.32 3.824 36.992 3.824C37.4293 3.824 37.8133 4.02133 38.144 4.416C38.4747 4.81067 38.64 5.15733 38.64 5.456C38.64 5.54133 38.6133 5.616 38.56 5.68C38.5067 5.73333 38.4267 5.76 38.32 5.76C38.224 5.76 38.048 5.664 37.792 5.472C37.536 5.28 37.3067 5.184 37.104 5.184C36.528 5.184 35.856 5.69067 35.088 6.704C34.32 7.71733 33.936 8.60267 33.936 9.36C33.936 9.69067 34.0373 9.952 34.24 10.144C34.4533 10.336 34.7893 10.432 35.248 10.432C35.7173 10.432 36.144 10.3787 36.528 10.272C36.9227 10.1547 37.2267 10.0427 37.44 9.936C37.6533 9.81867 37.8187 9.76 37.936 9.76C38.1387 9.76 38.24 9.86133 38.24 10.064C38.24 10.3733 37.8667 10.736 37.12 11.152C36.384 11.5573 35.7013 11.76 35.072 11.76ZM41.413 10.16C41.413 10.3627 41.5303 10.464 41.765 10.464C42.1703 10.464 42.661 10.352 43.237 10.128C43.8237 9.89333 44.149 9.776 44.213 9.776C44.405 9.776 44.501 9.87733 44.501 10.08C44.501 10.3893 44.181 10.7467 43.541 11.152C42.9117 11.5573 42.3357 11.76 41.813 11.76C41.301 11.76 40.8743 11.6213 40.533 11.344C40.1917 11.056 40.021 10.7627 40.021 10.464C40.021 10.1653 40.085 9.78667 40.213 9.328C40.341 8.85867 40.5223 8.24533 40.757 7.488C41.0023 6.72 41.1943 6.08533 41.333 5.584C40.8317 5.70133 40.4957 5.76 40.325 5.76C40.1543 5.76 39.9837 5.67467 39.813 5.504C39.653 5.32267 39.573 5.152 39.573 4.992C39.573 4.736 40.2663 4.49067 41.653 4.256C41.845 3.37067 41.941 2.58667 41.941 1.904C41.941 1.584 42.0477 1.424 42.261 1.424C42.4423 1.424 42.6663 1.54133 42.933 1.776C43.1997 2 43.333 2.256 43.333 2.544C43.333 2.832 43.2423 3.33867 43.061 4.064C43.669 4.01067 44.1543 3.984 44.517 3.984C45.157 3.984 45.477 4.12267 45.477 4.4C45.477 4.56 45.301 4.69333 44.949 4.8C44.6077 4.90667 43.8823 5.072 42.773 5.296C42.549 6.13867 42.2663 7.104 41.925 8.192C41.5837 9.26933 41.413 9.92533 41.413 10.16ZM50.3845 3.824C50.7472 3.824 51.0885 4.02667 51.4085 4.432C51.7285 4.82667 51.8885 5.17333 51.8885 5.472C51.8885 5.65333 51.8032 5.744 51.6325 5.744C51.5152 5.744 51.3338 5.65333 51.0885 5.472C50.8432 5.28 50.5925 5.184 50.3365 5.184C50.0805 5.184 49.6752 5.33333 49.1205 5.632C48.5765 5.93067 48.3045 6.24533 48.3045 6.576C48.3045 6.82133 48.7952 7.24267 49.7765 7.84C50.1498 8.07467 50.4858 8.37867 50.7845 8.752C51.0938 9.11467 51.2485 9.50933 51.2485 9.936C51.2485 10.352 50.9552 10.7627 50.3685 11.168C49.7925 11.5627 49.1152 11.76 48.3365 11.76C47.5685 11.76 46.8858 11.5733 46.2885 11.2C45.7018 10.8267 45.4085 10.4747 45.4085 10.144C45.4085 10.0053 45.4405 9.89867 45.5045 9.824C45.5792 9.73867 45.6698 9.696 45.7765 9.696C45.8832 9.696 46.0325 9.76533 46.2245 9.904C46.8005 10.32 47.3978 10.528 48.0165 10.528C48.6458 10.528 49.0992 10.4587 49.3765 10.32C49.6538 10.1707 49.7925 9.97867 49.7925 9.744C49.7925 9.49867 49.6378 9.24267 49.3285 8.976C49.0192 8.69867 48.6778 8.45333 48.3045 8.24C47.9418 8.02667 47.6058 7.76533 47.2965 7.456C46.9872 7.14667 46.8325 6.832 46.8325 6.512C46.8325 5.94667 47.2752 5.36 48.1605 4.752C49.0565 4.13333 49.7978 3.824 50.3845 3.824Z" fill="#7DFFAF"/>
</svg>
