<svg width="24" height="24" viewBox="0 0 24 24" fill="none" xmlns="http://www.w3.org/2000/svg">
<g clip-path="url(#clip0_512_1668)">
<path d="M11.9999 14.1375C13.1804 14.1375 14.1374 13.1805 14.1374 12C14.1374 10.8195 13.1804 9.8625 11.9999 9.8625C10.8194 9.8625 9.86243 10.8195 9.86243 12C9.86243 13.1805 10.8194 14.1375 11.9999 14.1375Z" fill="#9955E8"/>
<path d="M20.1187 8.475C19.7062 8.325 19.275 8.175 18.8249 8.04375C18.9375 7.59375 19.0312 7.14375 19.1062 6.7125C19.5 4.2375 19.0687 2.49375 17.8687 1.81875C17.5124 1.6125 17.1187 1.51875 16.6687 1.51875C15.3562 1.51875 13.6874 2.49375 12 4.125C10.3125 2.49375 8.6437 1.51875 7.3312 1.51875C6.8812 1.51875 6.48745 1.6125 6.1312 1.81875C4.9312 2.5125 4.49995 4.25625 4.8937 6.7125C4.9687 7.14375 5.06245 7.59375 5.17495 8.04375C4.72495 8.175 4.2937 8.30625 3.8812 8.475C1.53745 9.375 0.262451 10.6125 0.262451 12C0.262451 13.3875 1.5562 14.625 3.8812 15.525C4.2937 15.675 4.72495 15.825 5.17495 15.9563C5.06245 16.4063 4.9687 16.8563 4.8937 17.2875C4.49995 19.7625 4.9312 21.5063 6.1312 22.1813C6.48745 22.3875 6.8812 22.4813 7.3312 22.4813C8.66245 22.4813 10.3312 21.5063 12 19.875C13.6874 21.5063 15.3562 22.4813 16.6687 22.4813C17.1187 22.4813 17.5124 22.3875 17.8687 22.1813C19.0687 21.4875 19.5 19.7438 19.1062 17.2875C19.0312 16.8563 18.9375 16.4063 18.8249 15.9563C19.275 15.825 19.7062 15.6938 20.1187 15.525C22.4625 14.625 23.7374 13.3875 23.7374 12C23.7374 10.6125 22.4625 9.375 20.1187 8.475ZM17.3437 2.75625C18.1124 3.20625 18.375 4.59375 18.0562 6.5625C18 6.95625 17.9062 7.36875 17.7937 7.8C16.8187 7.575 15.7874 7.425 14.7 7.33125C14.0625 6.43125 13.4062 5.625 12.7499 4.89375C14.1375 3.525 15.5437 2.5875 16.6875 2.5875C16.9312 2.5875 17.1562 2.64375 17.3437 2.75625ZM15.2437 13.875C14.9062 14.475 14.5124 15.075 14.0999 15.675C13.4062 15.7313 12.7125 15.75 12 15.75C11.2687 15.75 10.575 15.7313 9.89995 15.675C9.48745 15.075 9.11245 14.475 8.77495 13.875C8.4187 13.2563 8.0812 12.6188 7.7812 12C8.0812 11.3813 8.4187 10.7438 8.77495 10.125C9.11245 9.525 9.5062 8.925 9.9187 8.325C10.6125 8.26875 11.3062 8.25 12.0187 8.25C12.7499 8.25 13.4437 8.26875 14.1187 8.325C14.5312 8.925 14.9062 9.525 15.2437 10.125C15.5999 10.7438 15.9374 11.3813 16.2374 12C15.9187 12.6188 15.5999 13.2375 15.2437 13.875ZM16.7999 13.2563C17.0812 13.9125 17.3062 14.55 17.5124 15.1875C16.875 15.3375 16.1999 15.45 15.4874 15.5438C15.7124 15.1875 15.9562 14.8125 16.1624 14.4188C16.3874 14.025 16.5937 13.6313 16.7999 13.2563ZM12 18.3375C11.5499 17.85 11.1187 17.325 10.7062 16.7813C11.1374 16.8 11.5687 16.8188 12 16.8188C12.4312 16.8188 12.8625 16.8 13.2937 16.7813C12.8812 17.325 12.45 17.85 12 18.3375ZM8.51245 15.525C7.79995 15.4313 7.12495 15.3188 6.48745 15.1688C6.6937 14.55 6.9187 13.8938 7.19995 13.2375C7.4062 13.6125 7.61245 14.0063 7.83745 14.3813C8.06245 14.7938 8.28745 15.15 8.51245 15.525ZM7.19995 10.7438C6.9187 10.0875 6.6937 9.45 6.48745 8.8125C7.12495 8.6625 7.79995 8.55 8.51245 8.45625C8.28745 8.8125 8.0437 9.1875 7.83745 9.58125C7.61245 9.975 7.4062 10.3688 7.19995 10.7438ZM12 5.6625C12.45 6.15 12.8812 6.675 13.2937 7.21875C12.8625 7.2 12.4312 7.18125 12 7.18125C11.5687 7.18125 11.1374 7.2 10.7062 7.21875C11.1187 6.675 11.5499 6.15 12 5.6625ZM16.1624 9.6L15.4874 8.475C16.1999 8.56875 16.875 8.68125 17.5124 8.83125C17.3062 9.45 17.0812 10.1063 16.7999 10.7625C16.5937 10.3688 16.3874 9.975 16.1624 9.6ZM5.9437 6.5625C5.62495 4.59375 5.88745 3.20625 6.6562 2.75625C6.8437 2.64375 7.0687 2.5875 7.31245 2.5875C8.43745 2.5875 9.8437 3.50625 11.25 4.89375C10.5937 5.60625 9.93745 6.43125 9.29995 7.33125C8.21245 7.425 7.1812 7.59375 6.2062 7.8C6.0937 7.36875 6.0187 6.95625 5.9437 6.5625ZM1.31245 12C1.31245 11.1188 2.3812 10.1813 4.2562 9.4875C4.6312 9.3375 5.0437 9.20625 5.4562 9.09375C5.7562 10.0313 6.1312 11.025 6.5812 12.0188C6.1312 13.0125 5.73745 13.9875 5.4562 14.925C2.8687 14.175 1.31245 13.05 1.31245 12ZM6.6562 21.2438C5.88745 20.7938 5.62495 19.4063 5.9437 17.4375C5.99995 17.0438 6.0937 16.6313 6.2062 16.2C7.1812 16.425 8.21245 16.575 9.29995 16.6688C9.93745 17.5688 10.5937 18.375 11.25 19.1063C9.86245 20.475 8.4562 21.4125 7.31245 21.4125C7.0687 21.4125 6.8437 21.3563 6.6562 21.2438ZM18.0562 17.4375C18.375 19.4063 18.1124 20.7938 17.3437 21.2438C17.1562 21.3563 16.9312 21.4125 16.6875 21.4125C15.5624 21.4125 14.1562 20.4938 12.7499 19.1063C13.4062 18.3938 14.0625 17.5688 14.7 16.6688C15.7874 16.575 16.8187 16.4063 17.7937 16.2C17.9062 16.6313 17.9812 17.0438 18.0562 17.4375ZM19.7437 14.5125C19.3687 14.6625 18.9562 14.7938 18.5437 14.9063C18.2437 13.9688 17.8687 12.975 17.4187 11.9813C17.8687 10.9875 18.2624 10.0125 18.5437 9.075C21.1312 9.825 22.6874 10.95 22.6874 12C22.6874 12.8813 21.5999 13.8188 19.7437 14.5125Z" fill="#9955E8"/>
</g>
<defs>
<clipPath id="clip0_512_1668">
<rect width="24" height="24" rx="12" fill="white"/>
</clipPath>
</defs>
</svg>
