<svg width="202" height="42" viewBox="0 0 202 42" fill="none" xmlns="http://www.w3.org/2000/svg">
<path d="M2.8 33.82C2.48 33.82 2.04 33.4733 1.48 32.78C0.92 32.06 0.64 31.38 0.64 30.74C0.64 30.1 1.22667 27.4867 2.4 22.9C2.05333 22.7667 1.74667 22.54 1.48 22.22C1.24 21.8733 1.12 21.4867 1.12 21.06C1.12 20.7133 1.81333 20.3267 3.2 19.9C4.98667 12.9133 5.88 8.58 5.88 6.9C5.88 6.44667 5.93333 6.14 6.04 5.98C6.17333 5.79333 6.41333 5.7 6.76 5.7C7.13333 5.7 7.61333 6.11333 8.2 6.94C8.81333 7.76667 9.12 8.7 9.12 9.74C9.12 10.7533 8.46667 13.8333 7.16 18.98C10.68 18.26 14.1333 17.7933 17.52 17.58C18.88 12.0333 19.56 8.47333 19.56 6.9C19.56 6.1 19.8267 5.7 20.36 5.7C20.8133 5.7 21.3467 6.11333 21.96 6.94C22.5733 7.76667 22.88 8.63333 22.88 9.54C22.88 10.42 22.28 13.1267 21.08 17.66C22.3067 17.8467 22.92 18.22 22.92 18.78C22.92 19.3133 22.0933 19.7533 20.44 20.1C19.5867 23.2467 19 25.4333 18.68 26.66C18.3867 27.86 18.1467 28.82 17.96 29.54C17.7733 30.26 17.5733 30.98 17.36 31.7C16.9867 33.1133 16.6533 33.82 16.36 33.82C15.9867 33.82 15.5467 33.5133 15.04 32.9C14.56 32.26 14.32 31.6067 14.32 30.94C14.32 30.2733 15.12 26.8467 16.72 20.66C12.8267 21.1933 9.32 21.8067 6.2 22.5C5.82667 23.8867 5.46667 25.2333 5.12 26.54C4.8 27.82 4.54667 28.82 4.36 29.54C4.17333 30.26 3.97333 30.98 3.76 31.7C3.38667 33.1133 3.06667 33.82 2.8 33.82ZM31.1569 8.38C31.1569 7.84666 31.3702 7.34 31.7969 6.86C32.2235 6.38 32.6502 6.14 33.0769 6.14C33.5302 6.14 34.0635 6.68666 34.6769 7.78C35.2902 8.84667 35.5969 9.74 35.5969 10.46C35.5969 10.7267 35.4769 10.9667 35.2369 11.18C34.9969 11.3933 34.7435 11.5 34.4769 11.5C33.8369 11.5 33.1169 11.1133 32.3169 10.34C31.5435 9.56667 31.1569 8.91333 31.1569 8.38ZM30.9569 14.06C31.4635 14.06 31.9435 14.3667 32.3969 14.98C32.8502 15.5933 33.0769 16.1933 33.0769 16.78C33.0769 17.3667 32.6902 19.1267 31.9169 22.06C31.1435 24.9667 30.1702 28.2333 28.9969 31.86C28.5435 33.1933 27.9702 33.86 27.2769 33.86C26.9035 33.86 26.5835 33.7133 26.3169 33.42C26.0502 33.1 25.9169 32.7533 25.9169 32.38C25.9169 31.98 26.0102 31.3667 26.1969 30.54C26.4102 29.6867 26.7035 28.5667 27.0769 27.18C27.4769 25.7667 27.7835 24.62 27.9969 23.74C28.2369 22.86 28.4769 21.8733 28.7169 20.78C28.9569 19.66 29.1435 18.7667 29.2769 18.1C29.4369 17.4067 29.6102 16.7133 29.7969 16.02C30.1702 14.7133 30.5569 14.06 30.9569 14.06ZM41.2881 33.46C41.2881 35.14 40.5681 36.9 39.1281 38.74C37.6881 40.6067 36.4481 41.54 35.4081 41.54C34.8748 41.54 34.6081 41.3533 34.6081 40.98C34.6081 40.6867 34.8881 40.2067 35.4481 39.54C37.1281 37.54 37.9681 35.8733 37.9681 34.54C37.9681 34.1133 37.7948 33.7667 37.4481 33.5C37.1281 33.2067 36.7948 32.94 36.4481 32.7C36.1015 32.46 35.9281 32.1667 35.9281 31.82C35.9281 31.4467 36.1548 30.9933 36.6081 30.46C37.0615 29.9 37.5415 29.62 38.0481 29.62C38.9015 29.62 39.6481 30.02 40.2881 30.82C40.9548 31.5933 41.2881 32.4733 41.2881 33.46ZM64.2444 33.74C63.9244 33.74 63.4977 33.42 62.9644 32.78C62.4577 32.14 62.2044 31.5533 62.2044 31.02C62.2044 30.4867 62.991 26.7667 64.5644 19.86C66.1644 12.9267 66.9777 8.63333 67.0044 6.98C67.0044 6.52667 67.0577 6.22 67.1644 6.06C67.2977 5.87333 67.551 5.78 67.9244 5.78C68.3244 5.78 68.831 6.19333 69.4444 7.02C70.0844 7.84667 70.4044 8.74 70.4044 9.7C70.4044 10.6333 69.4444 15.0067 67.5244 22.82C67.3377 23.54 67.0844 24.58 66.7644 25.94C66.4444 27.2733 66.191 28.3 66.0044 29.02C65.8177 29.74 65.6177 30.5267 65.4044 31.38C64.951 32.9533 64.5644 33.74 64.2444 33.74ZM81.1072 4.74C81.1072 6.42 80.3339 8.11333 78.7872 9.82C77.2405 11.5267 75.9739 12.38 74.9872 12.38C74.2672 12.38 73.9072 12.0867 73.9072 11.5C73.9072 11.18 74.2005 10.7267 74.7872 10.14C75.4005 9.55333 76.0139 8.87333 76.6272 8.1C77.2405 7.32667 77.5472 6.60667 77.5472 5.94C77.5472 5.27333 77.4272 4.78 77.1872 4.46C76.9472 4.14 76.6939 3.91333 76.4272 3.78C75.6539 3.46 75.2672 3.04667 75.2672 2.54C75.2672 2.03333 75.4672 1.60667 75.8672 1.26C76.2939 0.886666 76.7872 0.699999 77.3472 0.699999C78.3872 0.699999 79.2672 1.07333 79.9872 1.82C80.7339 2.54 81.1072 3.51333 81.1072 4.74ZM110.433 14.06C111.233 14.06 111.939 14.62 112.553 15.74C113.193 16.8333 113.513 18.0867 113.513 19.5C113.513 20.8867 113.259 22.7 112.753 24.94C112.273 27.18 111.619 29.2333 110.793 31.1C109.966 32.9667 109.153 33.9 108.353 33.9C107.793 33.9 107.513 33.54 107.513 32.82C107.513 32.0733 107.966 30.2733 108.873 27.42C109.806 24.54 110.273 22.26 110.273 20.58C110.273 18.8733 110.006 18.02 109.473 18.02C108.806 18.02 108.033 18.6067 107.153 19.78C106.299 20.9533 105.379 22.3667 104.393 24.02C103.406 25.6733 102.873 26.5667 102.793 26.7C102.713 26.8067 102.606 26.9667 102.473 27.18C102.366 27.3933 102.233 27.62 102.073 27.86C101.939 28.1 101.566 28.82 100.953 30.02C100.366 31.22 99.8458 32.1667 99.3925 32.86C98.9392 33.5267 98.5392 33.86 98.1925 33.86C97.8725 33.86 97.5125 33.6467 97.1125 33.22C96.7125 32.7933 96.5125 32.3933 96.5125 32.02C96.5125 31.6467 96.7525 30.8733 97.2325 29.7C98.6192 26.2333 99.3125 23.0067 99.3125 20.02C99.3125 19.46 99.1925 18.9933 98.9525 18.62C98.7125 18.22 98.4458 18.02 98.1525 18.02C97.8592 18.02 97.5525 18.1533 97.2325 18.42C96.9125 18.66 96.5125 19.1133 96.0325 19.78C95.5525 20.42 95.1258 21.0333 94.7525 21.62C94.3792 22.2067 93.8058 23.1267 93.0325 24.38C92.2858 25.6067 91.7125 26.5267 91.3125 27.14C90.9392 27.7267 90.4992 28.42 89.9925 29.22C89.4858 29.9933 89.0858 30.5933 88.7925 31.02C88.5258 31.4467 88.2192 31.9133 87.8725 32.42C87.1525 33.4067 86.6192 33.9 86.2725 33.9C85.9525 33.9 85.5258 33.6067 84.9925 33.02C84.4592 32.4067 84.1925 31.9533 84.1925 31.66C84.1925 31.34 84.2458 30.9533 84.3525 30.5C84.4592 30.0467 84.5658 29.6067 84.6725 29.18C84.8058 28.7533 84.9925 28.1267 85.2325 27.3C85.4992 26.4467 85.7925 25.46 86.1125 24.34C86.4592 23.1933 86.7125 21.6333 86.8725 19.66C87.0592 17.66 87.1925 16.2067 87.2725 15.3C87.3525 14.3667 87.5792 13.9 87.9525 13.9C88.5392 13.9 89.1125 14.2067 89.6725 14.82C90.2592 15.4333 90.5525 16.0467 90.5525 16.66C90.5525 19.0067 89.6725 22.8733 87.9125 28.26C90.8992 22.66 92.7792 19.34 93.5525 18.3C94.3258 17.26 94.9925 16.42 95.5525 15.78C96.5925 14.6333 97.6458 14.06 98.7125 14.06C99.3525 14.06 100.113 14.62 100.993 15.74C101.899 16.8333 102.353 17.94 102.353 19.06C102.353 20.18 102.193 21.5667 101.873 23.22C105.019 17.1133 107.873 14.06 110.433 14.06ZM149.923 25.94C149.923 28.1267 148.936 29.9667 146.963 31.46C144.99 32.9267 142.723 33.66 140.163 33.66C137.63 33.66 135.536 33.0067 133.883 31.7C132.23 30.3667 131.403 29.1133 131.403 27.94C131.403 27.14 131.643 26.74 132.123 26.74C132.55 26.74 133.39 27.38 134.643 28.66C135.123 29.1133 135.763 29.54 136.563 29.94C137.39 30.34 138.256 30.54 139.163 30.54C141.03 30.54 142.683 30.06 144.123 29.1C145.59 28.14 146.323 27.1 146.323 25.98C146.323 25.26 145.843 24.34 144.883 23.22C143.923 22.1 142.856 21.0467 141.683 20.06C140.536 19.0467 139.483 17.9667 138.523 16.82C137.563 15.6733 137.083 14.7667 137.083 14.1C137.083 13.4333 137.216 12.7267 137.483 11.98C137.75 11.2333 138.043 10.6867 138.363 10.34C139.403 9.19333 141.016 8.14 143.203 7.18C145.416 6.22 147.27 5.74 148.763 5.74C149.536 5.74 150.19 5.99333 150.723 6.5C151.256 7.00666 151.523 7.54 151.523 8.1C151.523 8.36667 151.243 8.58 150.683 8.74C150.123 8.9 149.27 9.11333 148.123 9.38C147.003 9.62 146.003 9.91333 145.123 10.26C142.056 11.4333 140.523 12.5667 140.523 13.66C140.523 14.2467 142.083 15.8867 145.203 18.58C146.403 19.62 147.483 20.8333 148.443 22.22C149.43 23.58 149.923 24.82 149.923 25.94ZM164.333 14.06C165.533 14.06 166.64 14.6733 167.653 15.9C168.666 17.1 169.173 18.1933 169.173 19.18C169.173 20.14 168.84 21.1267 168.173 22.14C168.493 22.54 168.653 22.8867 168.653 23.18C168.653 23.9267 168.48 25.2067 168.133 27.02C167.813 28.8333 167.613 30.02 167.533 30.58C167.48 31.14 167.426 31.5933 167.373 31.94C167.32 32.26 167.253 32.58 167.173 32.9C167.066 33.5667 166.826 33.9 166.453 33.9C165.973 33.9 165.573 33.4867 165.253 32.66C164.96 31.8067 164.786 30.7133 164.733 29.38C162.36 32.3933 160.16 33.9 158.133 33.9C156.906 33.9 155.693 33.38 154.493 32.34C153.32 31.2733 152.733 30.18 152.733 29.06C152.733 27.46 153.32 25.4867 154.493 23.14C155.666 20.7667 157.186 18.66 159.053 16.82C160.92 14.98 162.68 14.06 164.333 14.06ZM166.173 21.1C166.173 18.62 165.68 17.38 164.693 17.38C163.653 17.38 162.44 18.1267 161.053 19.62C159.666 21.0867 158.493 22.7533 157.533 24.62C156.573 26.4867 156.093 27.9667 156.093 29.06C156.093 29.5133 156.28 29.8867 156.653 30.18C157.026 30.4467 157.466 30.58 157.973 30.58C159.226 30.58 160.64 29.74 162.213 28.06C163.786 26.3533 164.88 24.2867 165.493 21.86C165.573 21.46 165.8 21.22 166.173 21.14V21.1ZM174.843 18.94L174.723 15.94C174.723 14.6867 175.016 14.06 175.603 14.06C176.11 14.06 176.59 14.3933 177.043 15.06C177.523 15.7 177.763 16.4733 177.763 17.38C177.763 18.26 177.736 18.9267 177.683 19.38C180.003 15.86 182.203 14.1 184.283 14.1C185.59 14.1 186.243 14.42 186.243 15.06C186.243 15.38 186.096 15.6733 185.803 15.94C185.51 16.2067 185.043 16.5133 184.403 16.86C182.99 17.4733 181.79 18.42 180.803 19.7C179.843 20.9533 179.056 22.38 178.443 23.98C177.83 25.58 177.336 26.9267 176.963 28.02C176.616 29.1133 176.35 29.9667 176.163 30.58C175.976 31.1933 175.763 31.7933 175.523 32.38C175.096 33.4467 174.603 33.98 174.043 33.98C173.59 33.98 173.216 33.7267 172.923 33.22C172.656 32.6867 172.523 32.18 172.523 31.7C172.523 31.1933 172.75 30.2067 173.203 28.74C174.296 25.38 174.843 22.1133 174.843 18.94ZM196.325 14.06C197.525 14.06 198.632 14.6733 199.645 15.9C200.659 17.1 201.165 18.1933 201.165 19.18C201.165 20.14 200.832 21.1267 200.165 22.14C200.485 22.54 200.645 22.8867 200.645 23.18C200.645 23.9267 200.472 25.2067 200.125 27.02C199.805 28.8333 199.605 30.02 199.525 30.58C199.472 31.14 199.419 31.5933 199.365 31.94C199.312 32.26 199.245 32.58 199.165 32.9C199.059 33.5667 198.819 33.9 198.445 33.9C197.965 33.9 197.565 33.4867 197.245 32.66C196.952 31.8067 196.779 30.7133 196.725 29.38C194.352 32.3933 192.152 33.9 190.125 33.9C188.899 33.9 187.685 33.38 186.485 32.34C185.312 31.2733 184.725 30.18 184.725 29.06C184.725 27.46 185.312 25.4867 186.485 23.14C187.659 20.7667 189.179 18.66 191.045 16.82C192.912 14.98 194.672 14.06 196.325 14.06ZM198.165 21.1C198.165 18.62 197.672 17.38 196.685 17.38C195.645 17.38 194.432 18.1267 193.045 19.62C191.659 21.0867 190.485 22.7533 189.525 24.62C188.565 26.4867 188.085 27.9667 188.085 29.06C188.085 29.5133 188.272 29.8867 188.645 30.18C189.019 30.4467 189.459 30.58 189.965 30.58C191.219 30.58 192.632 29.74 194.205 28.06C195.779 26.3533 196.872 24.2867 197.485 21.86C197.565 21.46 197.792 21.22 198.165 21.14V21.1Z" fill="url(#paint0_linear_512_1099)"/>
<defs>
<linearGradient id="paint0_linear_512_1099" x1="-2" y1="23.5" x2="204" y2="23.5007" gradientUnits="userSpaceOnUse">
<stop stop-color="#9955E8"/>
<stop offset="1" stop-color="#7BFFAF"/>
</linearGradient>
</defs>
</svg>
