<svg width="24" height="24" viewBox="0 0 24 24" fill="none" xmlns="http://www.w3.org/2000/svg">
<path d="M21.7858 17.2801C18.8312 21.2212 12.5222 19.8912 8.47619 20.0817C8.47619 20.0817 7.75937 20.1224 7.03896 20.2411C7.03896 20.2411 7.3118 20.1248 7.66004 20.0038C10.501 19.02 11.8437 18.8223 13.5705 17.9344C16.8136 16.2712 20.0422 12.6465 20.6992 8.88152C19.4642 12.5027 15.709 15.6194 12.2901 16.8847C9.95052 17.7499 5.71781 18.591 5.71661 18.591C5.719 18.5934 5.54788 18.5024 5.54548 18.5C2.66743 17.098 2.58366 10.8551 7.81202 8.84318C10.1049 7.96126 12.296 8.44535 14.7744 7.85461C17.4167 7.22552 20.4778 5.2424 21.7212 2.64936C23.1154 6.79295 24.7907 13.2732 21.7858 17.2801ZM21.8361 1.36722C21.4855 2.2036 21.0558 2.95731 20.5616 3.63193C18.3848 1.39478 15.3452 0 11.9849 0C5.37555 0 0 5.3826 0 11.9994C0 15.4684 1.47792 18.5958 3.83541 20.7875L4.09868 21.0199C3.66069 20.6628 3.59248 20.0182 3.9479 19.5784C4.30571 19.1386 4.94953 19.0715 5.38752 19.4274C5.82671 19.7845 5.89492 20.4304 5.5383 20.8701C5.18408 21.3099 4.53906 21.377 4.09988 21.0211L4.27818 21.1793C6.36282 22.9383 9.0506 24 11.9849 24C18.3011 24 23.4887 19.0775 23.9327 12.8657C24.2606 9.82336 23.3631 5.96016 21.8361 1.36722Z" fill="#8A42DB"/>
</svg>
