<svg width="24" height="24" viewBox="0 0 24 24" fill="none" xmlns="http://www.w3.org/2000/svg">
<g clip-path="url(#clip0_512_1676)">
<path d="M12.0007 4.80038C8.80067 4.80038 6.80136 6.39975 6.00073 9.59981C7.20036 8.00025 8.60079 7.40044 10.2004 7.80038C11.1137 8.028 11.7664 8.69025 12.4892 9.42413C13.6655 10.6179 15.0272 12 18.0007 12C21.2006 12 23.2001 10.4004 24.0007 7.19963C22.8009 8.80013 21.4007 9.39994 19.8009 9C18.8878 8.77219 18.2359 8.11013 17.5121 7.37625C16.3365 6.18244 14.9752 4.80038 12.0007 4.80038ZM6.00073 12C2.80086 12 0.801357 13.5996 0.000732422 16.8004C1.20036 15.1999 2.60061 14.6001 4.20036 15C5.11367 15.2278 5.76636 15.8899 6.48917 16.6238C7.66554 17.8176 9.02717 19.1996 12.0007 19.1996C15.2006 19.1996 17.2001 17.6003 18.0007 14.4002C16.8009 15.9998 15.4007 16.5996 13.8009 16.1996C12.8878 15.972 12.2359 15.3098 11.5121 14.5759C10.3365 13.3821 8.97523 12 6.00073 12Z" fill="#9955E8"/>
</g>
<defs>
<clipPath id="clip0_512_1676">
<rect width="24" height="24" fill="white"/>
</clipPath>
</defs>
</svg>
