<svg width="24" height="24" viewBox="0 0 24 24" fill="none" xmlns="http://www.w3.org/2000/svg">
<path d="M14.165 3.41593C13.7283 2.72547 13.868 2.27012 14.109 1.80004C14.3248 1.37924 14.4129 0.647957 13.6506 0.0724309C14.3524 -0.187065 15.46 0.271749 15.4791 1.11222C15.0718 1.67515 13.9593 1.89884 14.165 3.41593ZM19.2045 18.9318C18.8637 20.0414 19.0191 20.6317 17.5371 22.9353C20.1574 21.1585 21.3936 18.8644 21.8017 16.2608C22.0578 17.3464 22.082 18.3313 21.9814 19.2618C24.1528 16.3904 25.6406 10.6 20.6363 4.77953C20.435 7.35233 17.9579 9.37811 15.101 8.58376C19.9994 8.04135 20.3133 1.78485 16.1052 0.340159C16.1874 2.08075 13.8231 1.51079 14.5184 3.83933C12.1103 2.47078 6.8489 2.18951 4.75725 4.26581C3.67897 5.33618 2.94294 6.22142 1.59533 6.27989C0.482619 6.32817 -0.986684 8.14181 0.925027 9.06937C1.10762 9.84226 1.74928 10.2824 2.12135 10.3582C2.02882 11.7346 2.3203 11.0328 2.74742 10.4329C2.6039 12.1728 2.84041 11.546 3.50984 10.6508C9.17338 9.50032 12.3012 14.1397 12.3366 16.9892C12.3117 16.4722 11.4889 15.8709 11.0535 16.0366C10.7593 16.6626 10.4387 17.194 10.0431 17.4562C10.0845 17.0411 10.0562 16.626 9.98111 16.2109C9.85071 16.7128 9.60508 17.2341 9.21249 17.7799C8.43163 17.8237 7.33874 17.2403 7.65665 16.2732C8.10509 15.3326 7.22549 15.1371 6.51685 15.4063C5.98438 15.6087 5.62456 16.169 5.57533 16.3433C5.39771 16.9718 5.45616 18.3749 6.67108 19.3054C6.35258 19.3643 6.02559 19.4168 5.80329 19.5482C7.86994 20.8037 9.9794 20.3795 11.1541 19.9057C13.0774 19.13 14.4039 16.983 14.6114 15.3268C15.1453 17.6564 14.1889 20.2454 12.0451 21.634C12.6576 21.6992 13.8565 21.2824 15.0824 20.8433C14.1557 22.0148 13.0479 23.1258 11.2331 24C14.8076 23.6993 17.4221 21.8965 19.2045 18.9318Z" fill="#9955E8"/>
</svg>
